# xmcd
#
# Track frame offsets: 
#        150
#        57303
#        117651
#        154489
#        242898
#
# Disc length: 3868 seconds
#
# Revision: 0
# Processed by: cddbd v1.5.2PL0 Copyright (c) Steve Scherf et al.
# Submitted via: ExactAudioCopy v0.99pb4
#
DISCID=470f1a05
DTITLE=All The Way To Leeds - Omega Syndicate
DYEAR=2006
DGENRE=Electronic
TTITLE0=Dark Skies
TTITLE1=Stormbringer
TTITLE2=Eerie Interval
TTITLE3=Mask
TTITLE4=Rick O'Shea
EXTD=
EXTT0=
EXTT1=
EXTT2=
EXTT3=
EXTT4=
PLAYORDER=
